<svg xmlns="http://www.w3.org/2000/svg" width="256" height="256" viewBox="0 0 256 256" fill="none">
  <!-- MCPower "MC" monogram — mirrors ports/app/public/favicon.svg, recoloured
       from white to the brand rose (#ff5e8a, the dark-theme --primary). The dark
       plate keeps it legible on light or dark browser tabs, so one file serves
       both. Vendored byte-for-byte at documentation/.leyline/.../static/favicon.svg
       (like the fonts) — keep the two in sync; the app favicon stays white. -->
  <rect width="256" height="256" rx="56" fill="#0f1318"/>
  <g transform="translate(32.704 189.320)" fill="#ff5e8a" fill-rule="nonzero">
    <path d="M7.056 0.0V-122.64H37.800000000000004L50.232000000000006 -70.224L62.664 -122.64H93.744V0.0H70.72800000000001V-47.040000000000006Q70.72800000000001 -65.52000000000001 72.32400000000001 -82.572Q73.92 -99.62400000000001 75.60000000000001 -112.56L60.144000000000005 -52.080000000000005H39.984L24.864 -111.048Q26.544 -100.128 28.308 -83.244Q30.072000000000003 -66.36 30.072000000000003 -47.040000000000006V0.0Z"/>
    <path d="M142.544 1.6800000000000002Q130.28000000000003 1.6800000000000002 121.04000000000002 -2.9400000000000004Q111.80000000000001 -7.5600000000000005 106.67600000000002 -15.876000000000001Q101.552 -24.192 101.552 -35.28V-87.36Q101.552 -98.616 106.67600000000002 -106.84800000000001Q111.80000000000001 -115.08000000000001 121.04000000000002 -119.70000000000002Q130.28000000000003 -124.32000000000001 142.544 -124.32000000000001Q154.976 -124.32000000000001 164.132 -119.70000000000002Q173.288 -115.08000000000001 178.412 -106.84800000000001Q183.536 -98.616 183.536 -87.36H158.336Q158.336 -94.75200000000001 154.22000000000003 -98.61600000000001Q150.104 -102.48 142.544 -102.48Q134.984 -102.48 130.868 -98.61600000000001Q126.75200000000001 -94.75200000000001 126.75200000000001 -87.36V-35.28Q126.75200000000001 -28.056 130.868 -24.108Q134.984 -20.16 142.544 -20.16Q150.104 -20.16 154.22000000000003 -24.108Q158.336 -28.056 158.336 -35.28H183.536Q183.536 -24.192 178.412 -15.876000000000001Q173.288 -7.5600000000000005 164.132 -2.9400000000000004Q154.976 1.6800000000000002 142.544 1.6800000000000002Z"/>
  </g>
</svg>
